<svg width="215" height="176" viewBox="0 0 215 176" fill="none" xmlns="http://www.w3.org/2000/svg">
<path opacity="0.1" d="M68.1 175.36C47.14 175.36 30.66 167.44 18.66 151.6C6.82 135.44 0.9 114.24 0.9 88C0.9 61.76 6.82 40.64 18.66 24.64C30.66 8.63999 47.14 0.639989 68.1 0.639989C89.38 0.639989 105.86 8.63999 117.54 24.64C129.38 40.64 135.3 61.76 135.3 88C135.3 114.24 129.38 135.44 117.54 151.6C105.86 167.44 89.38 175.36 68.1 175.36ZM102.42 88C102.42 70.08 99.46 56.4 93.54 46.96C87.78 37.52 79.3 32.8 68.1 32.8C56.9 32.8 48.42 37.52 42.66 46.96C36.9 56.4 34.02 70.08 34.02 88C34.02 105.92 36.9 119.6 42.66 129.04C48.42 138.32 56.9 142.96 68.1 142.96C79.3 142.96 87.78 138.24 93.54 128.8C99.46 119.36 102.42 105.76 102.42 88ZM141.624 19.6L185.784 3.99999H214.584V172H181.464V39.04L149.784 47.92L141.624 19.6Z" fill="white"/>
</svg>
