<svg width="259" height="176" viewBox="0 0 259 176" fill="none" xmlns="http://www.w3.org/2000/svg">
<path opacity="0.1" d="M68.1 175.36C47.14 175.36 30.66 167.44 18.66 151.6C6.82 135.6 0.9 114.4 0.9 88C0.9 61.6 6.82 40.48 18.66 24.64C30.66 8.63999 47.14 0.639989 68.1 0.639989C89.22 0.639989 105.7 8.63999 117.54 24.64C129.38 40.48 135.3 61.6 135.3 88C135.3 114.4 129.38 135.6 117.54 151.6C105.7 167.44 89.22 175.36 68.1 175.36ZM42.66 129.04C48.42 138.32 56.9 142.96 68.1 142.96C79.3 142.96 87.78 138.24 93.54 128.8C99.46 119.36 102.42 105.76 102.42 88C102.42 70.08 99.46 56.4 93.54 46.96C87.78 37.52 79.3 32.8 68.1 32.8C56.9 32.8 48.42 37.52 42.66 46.96C36.9 56.4 34.02 70.08 34.02 88C34.02 105.92 36.9 119.6 42.66 129.04ZM145.933 172V147.28L203.293 88.24C216.093 74.8 222.493 63.6 222.493 54.64C222.493 48.08 220.413 42.8 216.253 38.8C212.253 34.8 207.053 32.8 200.653 32.8C188.013 32.8 178.653 39.36 172.573 52.48L144.733 36.16C150.013 24.64 157.613 15.84 167.533 9.75999C177.453 3.67999 188.333 0.639989 200.173 0.639989C215.373 0.639989 228.413 5.43999 239.293 15.04C250.173 24.48 255.613 37.28 255.613 53.44C255.613 70.88 246.413 88.8 228.013 107.2L195.133 140.08H258.253V172H145.933Z" fill="white"/>
</svg>
