<svg width="260" height="176" viewBox="0 0 260 176" fill="none" xmlns="http://www.w3.org/2000/svg">
<path opacity="0.1" d="M68.1 175.36C47.14 175.36 30.66 167.44 18.66 151.6C6.82 135.44 0.9 114.24 0.9 88C0.9 61.76 6.82 40.64 18.66 24.64C30.66 8.63999 47.14 0.639989 68.1 0.639989C89.38 0.639989 105.86 8.63999 117.54 24.64C129.38 40.64 135.3 61.76 135.3 88C135.3 114.24 129.38 135.44 117.54 151.6C105.86 167.44 89.38 175.36 68.1 175.36ZM102.42 88C102.42 70.08 99.46 56.4 93.54 46.96C87.78 37.52 79.3 32.8 68.1 32.8C56.9 32.8 48.42 37.52 42.66 46.96C36.9 56.4 34.02 70.08 34.02 88C34.02 105.92 36.9 119.6 42.66 129.04C48.42 138.32 56.9 142.96 68.1 142.96C79.3 142.96 87.78 138.24 93.54 128.8C99.46 119.36 102.42 105.76 102.42 88ZM253.035 31.36L221.595 72.16C233.275 75.52 242.555 81.44 249.435 89.92C256.475 98.4 259.995 108.48 259.995 120.16C259.995 137.44 254.155 150.96 242.475 160.72C231.115 170.48 216.955 175.36 199.995 175.36C186.715 175.36 174.955 172.32 164.715 166.24C154.475 160 147.035 151.2 142.395 139.84L170.715 123.52C174.715 136.48 184.475 142.96 199.995 142.96C208.475 142.96 215.035 140.96 219.675 136.96C224.475 132.8 226.875 127.2 226.875 120.16C226.875 113.28 224.475 107.76 219.675 103.6C215.035 99.44 208.475 97.36 199.995 97.36H192.795L180.075 78.16L213.195 34.96H147.435V3.99999H253.035V31.36Z" fill="white"/>
</svg>
